<svg width="86" height="87" viewBox="0 0 86 87" fill="none" xmlns="http://www.w3.org/2000/svg">
<path d="M70.006 42.4668C70.1307 42.4668 70.2283 42.5665 70.2283 42.693L70.2283 42.9958L85.4074 42.9959L85.4074 42.693C85.4074 42.5665 85.505 42.4668 85.6351 42.4668C85.7652 42.4668 85.8627 42.5665 85.8627 42.693L85.8627 44.5101C85.8627 44.6366 85.7597 44.7363 85.6351 44.7363C85.5104 44.7363 85.4074 44.6366 85.4074 44.5101L85.4074 44.2073L70.2283 44.2072L70.2283 44.5101C70.2283 44.6366 70.1307 44.7363 70.006 44.7363C69.8813 44.7363 69.7783 44.6366 69.7783 44.5101L69.7783 42.693C69.7783 42.5665 69.8759 42.4668 70.006 42.4668Z" fill="#C7C7C7" fill-opacity="0.7"/>
<path d="M67.8489 42.2012L67.8488 45.019L64.9321 43.612L67.8489 42.2012Z" fill="#C7C7C7" fill-opacity="0.7"/>
<path d="M43.3945 70.4707L43.6439 70.4707L44.1318 70.4707L44.3866 70.4707L44.8745 70.4707L45.2052 70.4707C45.2702 70.4707 45.3244 70.4937 45.3678 70.5359C45.4112 70.5781 45.4329 70.6356 45.4329 70.6969C45.4329 70.8196 45.3353 70.9231 45.2052 70.9231L44.9558 70.9231L47.6283 86.0963L47.9699 86.0963C48.0946 86.0963 48.1976 86.1998 48.1976 86.3224C48.1976 86.4451 48.0946 86.5486 47.9699 86.5486L46.1484 86.5486C46.0237 86.5486 45.9207 86.4489 45.9207 86.3224C45.9207 86.1959 46.0237 86.0963 46.1484 86.0963L46.3978 86.0963L44.2565 73.9669L42.1151 86.0962L42.397 86.0962C42.5217 86.0962 42.6247 86.1998 42.6247 86.3224C42.6247 86.4451 42.5217 86.5486 42.397 86.5486L40.5755 86.5486C40.4454 86.5486 40.3478 86.4489 40.3478 86.3224C40.3478 86.1998 40.4454 86.0962 40.5755 86.0962L40.8845 86.0962L43.5572 70.9231L43.3837 70.9231C43.3186 70.9231 43.2644 70.9001 43.2211 70.8579C43.1777 70.8157 43.156 70.7582 43.156 70.6969C43.156 70.5742 43.2536 70.4707 43.3837 70.4707M37.8542 70.4707L39.6756 70.4707C39.8003 70.4707 39.9033 70.5742 39.9033 70.6969C39.9033 70.8196 39.8003 70.9231 39.6756 70.9231L39.3721 70.9231L39.372 86.0962L39.6756 86.0962C39.8003 86.0962 39.9033 86.1997 39.9033 86.3224C39.9033 86.4451 39.8003 86.5486 39.6756 86.5486L37.8541 86.5486C37.7294 86.5486 37.6264 86.4489 37.6264 86.3224C37.6264 86.1959 37.7294 86.0962 37.8541 86.0962L38.1577 86.0962L38.1577 70.9231L37.8541 70.9231C37.7295 70.9231 37.6265 70.8196 37.6265 70.6969C37.6265 70.5742 37.7295 70.4707 37.8542 70.4707Z" fill="#C7C7C7" fill-opacity="0.7"/>
<path d="M42.9115 65.625L44.3265 68.5425L41.5019 68.5425L42.9115 65.625Z" fill="#C7C7C7" fill-opacity="0.7"/>
<path d="M0.328145 48.1813C0.452831 48.1813 0.55583 48.281 0.55583 48.4075L0.555829 48.7104L15.7295 48.7104L15.7295 48.4076C15.7295 48.281 15.8325 48.1814 15.9572 48.1814C16.0819 48.1814 16.1849 48.281 16.1849 48.4076L16.1849 50.2285C16.1849 50.3512 16.0873 50.4547 15.9572 50.4547C15.8271 50.4547 15.7295 50.3512 15.7295 50.2285L15.7295 49.9256L0.555825 49.9256L0.555824 50.2285C0.555823 50.3511 0.452823 50.4546 0.328137 50.4546C0.203452 50.4546 0.100452 50.3511 0.100452 50.2285L0.100459 48.4075C0.100459 48.281 0.198038 48.1813 0.328145 48.1813ZM0.328154 45.448C0.45284 45.448 0.55584 45.5515 0.555839 45.6742L0.555838 45.9771L15.7295 45.9771L15.7295 45.6742C15.7295 45.5516 15.8325 45.4481 15.9572 45.4481C16.0819 45.4481 16.1849 45.5516 16.1849 45.6742L16.1849 47.4952C16.1849 47.6178 16.0873 47.7214 15.9572 47.7213C15.8271 47.7213 15.7295 47.6178 15.7295 47.4952L15.7295 47.1923L0.555834 47.1923L0.555833 47.4951C0.555833 47.6178 0.452832 47.7213 0.328147 47.7213C0.203461 47.7213 0.100461 47.6178 0.100462 47.4951L0.100468 45.6742C0.100469 45.5515 0.198048 45.448 0.328154 45.448ZM0.284815 36.7382C0.4095 36.7382 0.5125 36.8417 0.512499 36.9644L0.512498 37.2711L15.6862 39.9469L15.6862 39.7706C15.6862 39.7092 15.7079 39.6479 15.7512 39.6134C15.7946 39.5712 15.8488 39.5444 15.9139 39.5444C16.0386 39.5444 16.1415 39.6479 16.1415 39.7706L16.1415 41.5915C16.1415 41.6528 16.1199 41.7142 16.0765 41.7525C16.0331 41.7947 15.9789 41.8177 15.9139 41.8177C15.7892 41.8177 15.6862 41.7142 15.6862 41.5915L15.6862 41.3347L0.512475 44.0104L0.512474 44.3478C0.512474 44.4743 0.409473 44.574 0.284788 44.574C0.160102 44.574 0.0571023 44.4743 0.0571028 44.3478L0.057109 42.5307C0.0571095 42.4042 0.154689 42.3045 0.284795 42.3045C0.414902 42.3045 0.512481 42.4042 0.51248 42.5307L0.512479 42.7799L12.6449 40.6408L0.512494 38.5016L0.512493 38.7815C0.512493 38.908 0.409492 39.0077 0.284807 39.0077C0.160121 39.0077 0.0571214 38.908 0.0571219 38.7815L0.0571281 36.9606C0.0571286 36.8379 0.154708 36.7344 0.284815 36.7344" fill="#C7C7C7" fill-opacity="0.7"/>
<path d="M17.9805 42.2012L20.8972 43.612L17.9805 45.019L17.9805 42.2012Z" fill="#888796"/>
<path d="M39.4863 0.650391L40.191 0.650392L40.9554 0.650394L41.3024 0.650394C41.362 0.650394 41.4216 0.673397 41.4596 0.715566C41.5029 0.757735 41.53 0.815237 41.53 0.876574C41.53 0.999247 41.427 1.10275 41.3024 1.10275L41.1018 1.10275L42.907 6.66523L44.7122 1.10276L44.5116 1.10276C44.452 1.10276 44.3924 1.07592 44.3544 1.03375C44.3111 0.991585 44.284 0.937916 44.284 0.876579C44.284 0.750072 44.387 0.6504 44.5116 0.6504L44.8586 0.650401L45.623 0.650402L46.3277 0.650403C46.3874 0.650403 46.447 0.673406 46.4904 0.715575C46.5337 0.757744 46.5554 0.815246 46.5554 0.876583C46.5554 0.999256 46.4524 1.10276 46.3277 1.10276L45.9808 1.10276L43.5358 8.62801L46.0349 16.3219L46.3223 16.3219C46.3819 16.3219 46.4415 16.3488 46.4849 16.3909C46.5283 16.4331 46.5499 16.4868 46.5499 16.5481C46.5499 16.6746 46.4469 16.7743 46.3223 16.7743L45.0971 16.7743L44.9019 16.7743L44.5008 16.7743C44.4411 16.7743 44.3815 16.7513 44.3435 16.7091C44.3002 16.667 44.2731 16.6094 44.2731 16.5481C44.2731 16.4254 44.3761 16.3219 44.5008 16.3219L44.7556 16.3219L42.8907 10.5946L41.0258 16.3219L41.2806 16.3219C41.3402 16.3219 41.3999 16.3488 41.4378 16.3909C41.4812 16.4331 41.5083 16.4868 41.5083 16.5481C41.5083 16.6746 41.4053 16.7743 41.2806 16.7743L40.8795 16.7743L40.6843 16.7743L39.4591 16.7743C39.3995 16.7743 39.3399 16.7513 39.2965 16.7091C39.2531 16.6669 39.2314 16.6094 39.2314 16.5481C39.2314 16.4254 39.3344 16.3219 39.4591 16.3219L39.7464 16.3219L42.2456 8.628L39.8007 1.10275L39.4538 1.10275C39.3941 1.10275 39.3345 1.07591 39.2911 1.03375C39.2478 0.991576 39.2261 0.937907 39.2261 0.87657C39.2261 0.750063 39.3291 0.650391 39.4538 0.650391" fill="#C7C7C7" fill-opacity="0.7"/>
<path d="M41.502 18.6699L44.3265 18.6699L42.9115 21.5874L41.502 18.6699Z" fill="#C7C7C7" fill-opacity="0.7"/>
</svg>
